<mxfile host="65bd71144e">
    <diagram id="v7XoQloWst_Ytf7YLd7i" name="Page-1">
        <mxGraphModel dx="2522" dy="1908" grid="1" gridSize="10" guides="1" tooltips="1" connect="1" arrows="1" fold="1" page="1" pageScale="1" pageWidth="850" pageHeight="1100" math="0" shadow="0">
            <root>
                <mxCell id="0"/>
                <mxCell id="1" parent="0"/>
                <mxCell id="ZXGESazvP73ezHv82M8u-2" value="&lt;font&gt;Posts (join table)&lt;br style=&quot;font-size: 12px&quot;&gt;&lt;span style=&quot;font-size: 14px&quot;&gt;has_many&amp;nbsp;&lt;/span&gt;&lt;b style=&quot;font-size: 14px&quot;&gt;:comments&lt;br&gt;&lt;/b&gt;&lt;span style=&quot;font-size: 14px&quot;&gt;has_many&amp;nbsp;&lt;/span&gt;&lt;b style=&quot;font-size: 14px&quot;&gt;:users&lt;/b&gt;&lt;span style=&quot;font-size: 14px&quot;&gt;, through:&amp;nbsp;&lt;b&gt;:comments&lt;br&gt;&lt;/b&gt;&lt;/span&gt;&lt;span style=&quot;font-size: 14px&quot;&gt;belongs_to&amp;nbsp;&lt;b&gt;:forum&lt;br&gt;&lt;/b&gt;belongs_to&amp;nbsp;&lt;b&gt;:user&lt;/b&gt;&lt;/span&gt;&lt;/font&gt;&lt;font style=&quot;font-size: 14px&quot;&gt;&lt;b&gt;&lt;br&gt;&lt;/b&gt;&lt;/font&gt;" style="rounded=0;whiteSpace=wrap;html=1;fontSize=24;align=center;" parent="1" vertex="1">
                    <mxGeometry x="320" y="450" width="330" height="150" as="geometry"/>
                </mxCell>
                <mxCell id="ZXGESazvP73ezHv82M8u-3" value="&lt;font&gt;Forum&amp;nbsp;&lt;/font&gt;&lt;br style=&quot;font-size: 12px&quot;&gt;&lt;span style=&quot;font-size: 14px&quot;&gt;has_many&amp;nbsp;&lt;/span&gt;&lt;b style=&quot;font-size: 14px&quot;&gt;:posts&lt;br&gt;&lt;/b&gt;&lt;span style=&quot;font-size: 14px&quot;&gt;has_many&amp;nbsp;&lt;/span&gt;&lt;b style=&quot;font-size: 14px&quot;&gt;:users&lt;/b&gt;&lt;span style=&quot;font-size: 14px&quot;&gt;, through: &lt;b&gt;:posts&lt;/b&gt;&lt;/span&gt;&lt;span style=&quot;font-size: 14px&quot;&gt;&lt;br&gt;&lt;/span&gt;" style="rounded=0;whiteSpace=wrap;html=1;fontSize=24;align=center;" parent="1" vertex="1">
                    <mxGeometry x="460" y="110" width="270" height="151" as="geometry"/>
                </mxCell>
                <mxCell id="ZXGESazvP73ezHv82M8u-5" value="" style="endArrow=classic;html=1;rounded=0;fontSize=24;entryX=0.29;entryY=-0.009;entryDx=0;entryDy=0;entryPerimeter=0;" parent="1" target="ZXGESazvP73ezHv82M8u-2" edge="1">
                    <mxGeometry width="50" height="50" relative="1" as="geometry">
                        <mxPoint x="230" y="280" as="sourcePoint"/>
                        <mxPoint x="290" y="310" as="targetPoint"/>
                    </mxGeometry>
                </mxCell>
                <mxCell id="ZXGESazvP73ezHv82M8u-6" value="" style="endArrow=classic;html=1;rounded=0;fontSize=24;entryX=0.25;entryY=0;entryDx=0;entryDy=0;exitX=0.536;exitY=1.019;exitDx=0;exitDy=0;exitPerimeter=0;" parent="1" source="ZXGESazvP73ezHv82M8u-1" target="ZXGESazvP73ezHv82M8u-2" edge="1">
                    <mxGeometry width="50" height="50" relative="1" as="geometry">
                        <mxPoint x="230" y="280" as="sourcePoint"/>
                        <mxPoint x="379.03" y="370.00000000000006" as="targetPoint"/>
                    </mxGeometry>
                </mxCell>
                <mxCell id="ZXGESazvP73ezHv82M8u-7" value="" style="endArrow=classic;html=1;rounded=0;fontSize=24;entryX=0.185;entryY=0.004;entryDx=0;entryDy=0;entryPerimeter=0;exitX=0.533;exitY=1.003;exitDx=0;exitDy=0;exitPerimeter=0;" parent="1" source="ZXGESazvP73ezHv82M8u-1" target="ZXGESazvP73ezHv82M8u-2" edge="1">
                    <mxGeometry width="50" height="50" relative="1" as="geometry">
                        <mxPoint x="230" y="280" as="sourcePoint"/>
                        <mxPoint x="399.03" y="388.95000000000005" as="targetPoint"/>
                    </mxGeometry>
                </mxCell>
                <mxCell id="ZXGESazvP73ezHv82M8u-8" value="" style="endArrow=classic;html=1;rounded=0;fontSize=24;entryX=0.67;entryY=-0.004;entryDx=0;entryDy=0;entryPerimeter=0;" parent="1" target="ZXGESazvP73ezHv82M8u-2" edge="1">
                    <mxGeometry width="50" height="50" relative="1" as="geometry">
                        <mxPoint x="600" y="260" as="sourcePoint"/>
                        <mxPoint x="389.03" y="378.95000000000005" as="targetPoint"/>
                    </mxGeometry>
                </mxCell>
                <mxCell id="ZXGESazvP73ezHv82M8u-9" value="" style="endArrow=classic;html=1;rounded=0;fontSize=24;entryX=0.815;entryY=-0.013;entryDx=0;entryDy=0;entryPerimeter=0;" parent="1" target="ZXGESazvP73ezHv82M8u-2" edge="1">
                    <mxGeometry width="50" height="50" relative="1" as="geometry">
                        <mxPoint x="600" y="260" as="sourcePoint"/>
                        <mxPoint x="475.1600000000001" y="378.04999999999995" as="targetPoint"/>
                    </mxGeometry>
                </mxCell>
                <mxCell id="ZXGESazvP73ezHv82M8u-10" value="" style="endArrow=classic;html=1;rounded=0;fontSize=24;entryX=0.75;entryY=0;entryDx=0;entryDy=0;" parent="1" target="ZXGESazvP73ezHv82M8u-2" edge="1">
                    <mxGeometry width="50" height="50" relative="1" as="geometry">
                        <mxPoint x="600" y="260" as="sourcePoint"/>
                        <mxPoint x="485.1600000000001" y="388.04999999999995" as="targetPoint"/>
                    </mxGeometry>
                </mxCell>
                <mxCell id="ZXGESazvP73ezHv82M8u-11" value="&lt;font style=&quot;font-size: 14px&quot;&gt;&lt;font&gt;&lt;b&gt;User table:&lt;br&gt;&lt;/b&gt;&lt;/font&gt;-username: string&lt;br&gt;-email: string&lt;br&gt;-password: string&lt;br&gt;&lt;i&gt;-password_digest&lt;/i&gt;&lt;br&gt;-BTC address: string&lt;br&gt;-admin: boolean&lt;br&gt;&lt;/font&gt;" style="rounded=0;whiteSpace=wrap;html=1;fontSize=24;" parent="1" vertex="1">
                    <mxGeometry x="-20" y="690" width="160" height="240" as="geometry"/>
                </mxCell>
                <mxCell id="ZXGESazvP73ezHv82M8u-13" value="Comment - (join table)&lt;br style=&quot;font-size: 12px&quot;&gt;&lt;font style=&quot;font-size: 14px&quot;&gt;belongs_to&amp;nbsp;&lt;b&gt;:user&lt;br&gt;&lt;/b&gt;belongs_to&amp;nbsp;&lt;b&gt;:post&lt;/b&gt;&lt;/font&gt;&lt;span style=&quot;font-size: 14px&quot;&gt;&lt;br&gt;&lt;/span&gt;" style="rounded=0;whiteSpace=wrap;html=1;fontSize=24;align=center;" parent="1" vertex="1">
                    <mxGeometry x="-180" y="370" width="270" height="150" as="geometry"/>
                </mxCell>
                <mxCell id="ZXGESazvP73ezHv82M8u-14" value="" style="endArrow=classic;html=1;rounded=0;fontSize=14;entryX=0.193;entryY=1.013;entryDx=0;entryDy=0;entryPerimeter=0;" parent="1" target="ZXGESazvP73ezHv82M8u-1" edge="1">
                    <mxGeometry width="50" height="50" relative="1" as="geometry">
                        <mxPoint x="-20" y="370" as="sourcePoint"/>
                        <mxPoint x="30" y="320" as="targetPoint"/>
                        <Array as="points">
                            <mxPoint x="120" y="272"/>
                        </Array>
                    </mxGeometry>
                </mxCell>
                <mxCell id="ZXGESazvP73ezHv82M8u-15" value="" style="endArrow=classic;html=1;rounded=0;fontSize=14;entryX=0.25;entryY=1;entryDx=0;entryDy=0;" parent="1" target="ZXGESazvP73ezHv82M8u-1" edge="1">
                    <mxGeometry width="50" height="50" relative="1" as="geometry">
                        <mxPoint x="-20" y="370" as="sourcePoint"/>
                        <mxPoint x="132.1099999999999" y="291.95000000000005" as="targetPoint"/>
                    </mxGeometry>
                </mxCell>
                <mxCell id="ZXGESazvP73ezHv82M8u-16" value="" style="endArrow=classic;html=1;rounded=0;fontSize=14;entryX=0.103;entryY=1.017;entryDx=0;entryDy=0;entryPerimeter=0;" parent="1" target="ZXGESazvP73ezHv82M8u-1" edge="1">
                    <mxGeometry width="50" height="50" relative="1" as="geometry">
                        <mxPoint x="-20" y="370" as="sourcePoint"/>
                        <mxPoint x="100" y="270" as="targetPoint"/>
                    </mxGeometry>
                </mxCell>
                <mxCell id="ZXGESazvP73ezHv82M8u-17" value="" style="endArrow=classic;html=1;rounded=0;fontSize=14;exitX=1;exitY=0.373;exitDx=0;exitDy=0;exitPerimeter=0;entryX=0.001;entryY=0.189;entryDx=0;entryDy=0;entryPerimeter=0;" parent="1" source="ZXGESazvP73ezHv82M8u-13" target="ZXGESazvP73ezHv82M8u-2" edge="1">
                    <mxGeometry width="50" height="50" relative="1" as="geometry">
                        <mxPoint x="10" y="400" as="sourcePoint"/>
                        <mxPoint x="268" y="410" as="targetPoint"/>
                    </mxGeometry>
                </mxCell>
                <mxCell id="ZXGESazvP73ezHv82M8u-18" value="" style="endArrow=classic;html=1;rounded=0;fontSize=14;entryX=-0.004;entryY=0.301;entryDx=0;entryDy=0;entryPerimeter=0;exitX=1.007;exitY=0.387;exitDx=0;exitDy=0;exitPerimeter=0;" parent="1" source="ZXGESazvP73ezHv82M8u-13" target="ZXGESazvP73ezHv82M8u-2" edge="1">
                    <mxGeometry width="50" height="50" relative="1" as="geometry">
                        <mxPoint x="100" y="435.95000000000005" as="sourcePoint"/>
                        <mxPoint x="278.02" y="403.04999999999995" as="targetPoint"/>
                    </mxGeometry>
                </mxCell>
                <mxCell id="ZXGESazvP73ezHv82M8u-19" value="" style="endArrow=classic;html=1;rounded=0;fontSize=14;entryX=-0.008;entryY=0.461;entryDx=0;entryDy=0;entryPerimeter=0;exitX=1.004;exitY=0.393;exitDx=0;exitDy=0;exitPerimeter=0;" parent="1" source="ZXGESazvP73ezHv82M8u-13" target="ZXGESazvP73ezHv82M8u-2" edge="1">
                    <mxGeometry width="50" height="50" relative="1" as="geometry">
                        <mxPoint x="110" y="445.95000000000005" as="sourcePoint"/>
                        <mxPoint x="288.02" y="413.04999999999995" as="targetPoint"/>
                    </mxGeometry>
                </mxCell>
                <mxCell id="ZXGESazvP73ezHv82M8u-23" value="" style="swimlane;startSize=0;fontSize=14;" parent="1" vertex="1">
                    <mxGeometry x="-120" y="660" width="870" height="310" as="geometry"/>
                </mxCell>
                <mxCell id="ZXGESazvP73ezHv82M8u-25" value="" style="swimlane;startSize=0;fontSize=14;" parent="1" vertex="1">
                    <mxGeometry x="-230" y="60" width="1030" height="940" as="geometry"/>
                </mxCell>
                <mxCell id="ZXGESazvP73ezHv82M8u-21" value="&lt;font style=&quot;font-size: 14px&quot;&gt;&lt;font&gt;&lt;b&gt;Post table:&lt;br&gt;&lt;/b&gt;&lt;/font&gt;-title: string&lt;br&gt;-content: strong&lt;br&gt;-datetime&lt;br&gt;-forum_id&lt;br&gt;-user_id&lt;br&gt;&lt;br&gt;&lt;/font&gt;" style="rounded=0;whiteSpace=wrap;html=1;fontSize=24;" parent="ZXGESazvP73ezHv82M8u-25" vertex="1">
                    <mxGeometry x="400" y="650" width="140" height="190" as="geometry"/>
                </mxCell>
                <mxCell id="ZXGESazvP73ezHv82M8u-20" value="&lt;font style=&quot;font-size: 14px&quot;&gt;&lt;font&gt;&lt;b&gt;Forum table:&lt;br&gt;&lt;/b&gt;&lt;/font&gt;-title: string&lt;br&gt;-description: string&lt;br&gt;-datetime&lt;br&gt;-posts (?)&lt;br&gt;&lt;/font&gt;" style="rounded=0;whiteSpace=wrap;html=1;fontSize=24;" parent="ZXGESazvP73ezHv82M8u-25" vertex="1">
                    <mxGeometry x="760" y="650" width="140" height="190" as="geometry"/>
                </mxCell>
                <mxCell id="ZXGESazvP73ezHv82M8u-12" value="&lt;font style=&quot;font-size: 14px&quot;&gt;&lt;font&gt;&lt;b&gt;Comment table:&lt;br&gt;&lt;/b&gt;&lt;/font&gt;-content: string&lt;br&gt;-user_id&lt;br&gt;-forum_id&lt;br&gt;-datetime&lt;br&gt;&lt;/font&gt;" style="rounded=0;whiteSpace=wrap;html=1;fontSize=24;" parent="ZXGESazvP73ezHv82M8u-25" vertex="1">
                    <mxGeometry x="585" y="640" width="140" height="190" as="geometry"/>
                </mxCell>
                <mxCell id="ZXGESazvP73ezHv82M8u-1" value="&lt;font&gt;User&lt;/font&gt;&lt;br style=&quot;font-size: 12px&quot;&gt;&lt;font style=&quot;font-size: 14px&quot;&gt;has_many&amp;nbsp;&lt;b&gt;:comments&lt;/b&gt;&lt;br&gt;has_many &lt;b&gt;:posts&lt;br&gt;&lt;/b&gt;has_many&amp;nbsp;&lt;b&gt;:forums&lt;/b&gt;, through &lt;b&gt;:posts&lt;/b&gt;&lt;b&gt;&lt;br&gt;&lt;/b&gt;&lt;/font&gt;" style="rounded=0;whiteSpace=wrap;html=1;fontSize=24;align=center;" parent="ZXGESazvP73ezHv82M8u-25" vertex="1">
                    <mxGeometry x="310" y="50" width="270" height="150" as="geometry"/>
                </mxCell>
                <mxCell id="ZXGESazvP73ezHv82M8u-27" value="&lt;font style=&quot;font-size: 18px&quot;&gt;&lt;u&gt;&lt;i&gt;&lt;b&gt;Backend structure&lt;/b&gt;&lt;/i&gt;&lt;/u&gt;&lt;/font&gt;" style="rounded=0;whiteSpace=wrap;html=1;fontSize=14;fillColor=#99FFFF;" parent="1" vertex="1">
                    <mxGeometry x="180" y="30" width="190" height="50" as="geometry"/>
                </mxCell>
                <mxCell id="ZXGESazvP73ezHv82M8u-79" value="" style="swimlane;startSize=0;fontSize=12;fillColor=#FFFFCC;" parent="1" vertex="1">
                    <mxGeometry x="-1380" y="20" width="1040" height="1020" as="geometry"/>
                </mxCell>
                <mxCell id="3" value="" style="edgeStyle=none;html=1;exitX=1;exitY=0.5;exitDx=0;exitDy=0;" edge="1" parent="ZXGESazvP73ezHv82M8u-79" source="ZXGESazvP73ezHv82M8u-24" target="2">
                    <mxGeometry relative="1" as="geometry"/>
                </mxCell>
                <mxCell id="ZXGESazvP73ezHv82M8u-24" value="&lt;font style=&quot;font-size: 18px&quot;&gt;App.js&lt;/font&gt;" style="rounded=0;whiteSpace=wrap;html=1;fontSize=14;" parent="ZXGESazvP73ezHv82M8u-79" vertex="1">
                    <mxGeometry x="500" y="60" width="120" height="60" as="geometry"/>
                </mxCell>
                <mxCell id="ZXGESazvP73ezHv82M8u-50" value="&lt;span style=&quot;font-size: 18px&quot;&gt;Comment.js&lt;/span&gt;" style="rounded=0;whiteSpace=wrap;html=1;fontSize=14;" parent="ZXGESazvP73ezHv82M8u-79" vertex="1">
                    <mxGeometry x="430" y="750" width="110" height="50" as="geometry"/>
                </mxCell>
                <mxCell id="ZXGESazvP73ezHv82M8u-84" value="&lt;span style=&quot;font-size: 18px&quot;&gt;Login.js&lt;/span&gt;" style="rounded=0;whiteSpace=wrap;html=1;fontSize=14;" parent="ZXGESazvP73ezHv82M8u-79" vertex="1">
                    <mxGeometry x="780" y="90" width="160" height="60" as="geometry"/>
                </mxCell>
                <mxCell id="ZXGESazvP73ezHv82M8u-89" value="" style="endArrow=classic;html=1;rounded=0;fontSize=12;entryX=0;entryY=0.5;entryDx=0;entryDy=0;exitX=1;exitY=0.5;exitDx=0;exitDy=0;" parent="ZXGESazvP73ezHv82M8u-79" source="ZXGESazvP73ezHv82M8u-24" target="ZXGESazvP73ezHv82M8u-84" edge="1">
                    <mxGeometry width="50" height="50" relative="1" as="geometry">
                        <mxPoint x="500" y="130" as="sourcePoint"/>
                        <mxPoint x="370.96000000000004" y="204" as="targetPoint"/>
                    </mxGeometry>
                </mxCell>
                <mxCell id="ZXGESazvP73ezHv82M8u-61" value="&lt;font style=&quot;font-size: 18px&quot;&gt;CreateComment.js&lt;br&gt;&lt;/font&gt;" style="rounded=0;whiteSpace=wrap;html=1;fontSize=14;" parent="ZXGESazvP73ezHv82M8u-79" vertex="1">
                    <mxGeometry x="620" y="690" width="165" height="40" as="geometry"/>
                </mxCell>
                <mxCell id="2" value="&lt;span style=&quot;font-size: 18px&quot;&gt;LoginPage.js&lt;/span&gt;" style="rounded=0;whiteSpace=wrap;html=1;fontSize=14;" vertex="1" parent="ZXGESazvP73ezHv82M8u-79">
                    <mxGeometry x="780" y="170" width="160" height="60" as="geometry"/>
                </mxCell>
                <mxCell id="ZXGESazvP73ezHv82M8u-36" value="&lt;span style=&quot;font-size: 18px&quot;&gt;ForumSearch.js&lt;/span&gt;" style="rounded=0;whiteSpace=wrap;html=1;fontSize=14;" parent="ZXGESazvP73ezHv82M8u-79" vertex="1">
                    <mxGeometry x="190" y="120" width="150" height="60" as="geometry"/>
                </mxCell>
                <mxCell id="ZXGESazvP73ezHv82M8u-69" value="" style="endArrow=classic;html=1;rounded=0;fontSize=12;entryX=1;entryY=0.5;entryDx=0;entryDy=0;" parent="ZXGESazvP73ezHv82M8u-79" source="ZXGESazvP73ezHv82M8u-24" target="ZXGESazvP73ezHv82M8u-36" edge="1">
                    <mxGeometry width="50" height="50" relative="1" as="geometry">
                        <mxPoint x="650" y="460" as="sourcePoint"/>
                        <mxPoint x="380" y="400" as="targetPoint"/>
                    </mxGeometry>
                </mxCell>
                <mxCell id="20" value="&lt;span style=&quot;font-size: 18px&quot;&gt;Nav.js&lt;/span&gt;" style="rounded=0;whiteSpace=wrap;html=1;fontSize=14;" vertex="1" parent="ZXGESazvP73ezHv82M8u-79">
                    <mxGeometry x="280" y="330" width="150" height="60" as="geometry"/>
                </mxCell>
                <mxCell id="21" value="" style="endArrow=classic;html=1;rounded=0;fontSize=12;entryX=0.5;entryY=0;entryDx=0;entryDy=0;exitX=0.5;exitY=1;exitDx=0;exitDy=0;" edge="1" parent="ZXGESazvP73ezHv82M8u-79" source="ZXGESazvP73ezHv82M8u-24" target="20">
                    <mxGeometry width="50" height="50" relative="1" as="geometry">
                        <mxPoint x="529.6875" y="130" as="sourcePoint"/>
                        <mxPoint x="355" y="260" as="targetPoint"/>
                    </mxGeometry>
                </mxCell>
                <mxCell id="ZXGESazvP73ezHv82M8u-30" value="&lt;font style=&quot;font-size: 18px&quot;&gt;Forum.js&lt;/font&gt;" style="rounded=0;whiteSpace=wrap;html=1;fontSize=14;" parent="ZXGESazvP73ezHv82M8u-79" vertex="1">
                    <mxGeometry x="515" y="260" width="120" height="60" as="geometry"/>
                </mxCell>
                <mxCell id="ZXGESazvP73ezHv82M8u-58" value="" style="endArrow=classic;html=1;rounded=0;fontSize=18;entryX=0.5;entryY=0;entryDx=0;entryDy=0;exitX=0.5;exitY=1;exitDx=0;exitDy=0;" parent="ZXGESazvP73ezHv82M8u-79" source="ZXGESazvP73ezHv82M8u-24" target="ZXGESazvP73ezHv82M8u-30" edge="1">
                    <mxGeometry width="50" height="50" relative="1" as="geometry">
                        <mxPoint x="475" y="300" as="sourcePoint"/>
                        <mxPoint x="525" y="250" as="targetPoint"/>
                    </mxGeometry>
                </mxCell>
                <mxCell id="22" value="&lt;font style=&quot;font-size: 18px&quot;&gt;CreatePost.js&lt;br&gt;&lt;/font&gt;" style="rounded=0;whiteSpace=wrap;html=1;fontSize=14;" vertex="1" parent="ZXGESazvP73ezHv82M8u-79">
                    <mxGeometry x="670" y="400" width="150" height="40" as="geometry"/>
                </mxCell>
                <mxCell id="23" value="" style="endArrow=classic;html=1;rounded=0;fontSize=18;exitX=0.635;exitY=1.017;exitDx=0;exitDy=0;entryX=0.5;entryY=0;entryDx=0;entryDy=0;exitPerimeter=0;" edge="1" parent="ZXGESazvP73ezHv82M8u-79" source="ZXGESazvP73ezHv82M8u-30" target="22">
                    <mxGeometry width="50" height="50" relative="1" as="geometry">
                        <mxPoint x="524.9999999999998" y="300" as="sourcePoint"/>
                        <mxPoint x="499.9999999999998" y="520" as="targetPoint"/>
                    </mxGeometry>
                </mxCell>
                <mxCell id="ZXGESazvP73ezHv82M8u-54" value="&lt;font style=&quot;font-size: 18px&quot;&gt;PostPreview.js&lt;br&gt;&lt;/font&gt;" style="rounded=0;whiteSpace=wrap;html=1;fontSize=14;" parent="ZXGESazvP73ezHv82M8u-79" vertex="1">
                    <mxGeometry x="320" y="470" width="150" height="40" as="geometry"/>
                </mxCell>
                <mxCell id="ZXGESazvP73ezHv82M8u-57" value="" style="endArrow=classic;html=1;rounded=0;fontSize=18;exitX=0;exitY=0.5;exitDx=0;exitDy=0;entryX=0.5;entryY=0;entryDx=0;entryDy=0;" parent="ZXGESazvP73ezHv82M8u-79" source="ZXGESazvP73ezHv82M8u-30" target="ZXGESazvP73ezHv82M8u-54" edge="1">
                    <mxGeometry width="50" height="50" relative="1" as="geometry">
                        <mxPoint x="470" y="430" as="sourcePoint"/>
                        <mxPoint x="520" y="380" as="targetPoint"/>
                    </mxGeometry>
                </mxCell>
                <mxCell id="ZXGESazvP73ezHv82M8u-51" value="&lt;font style=&quot;font-size: 18px&quot;&gt;Comment.js&lt;/font&gt;" style="rounded=0;whiteSpace=wrap;html=1;fontSize=14;" parent="ZXGESazvP73ezHv82M8u-79" vertex="1">
                    <mxGeometry x="365" y="670" width="140" height="30" as="geometry"/>
                </mxCell>
                <mxCell id="ZXGESazvP73ezHv82M8u-48" value="&lt;span style=&quot;font-size: 18px&quot;&gt;Comment.js&lt;/span&gt;" style="rounded=0;whiteSpace=wrap;html=1;fontSize=14;" parent="ZXGESazvP73ezHv82M8u-79" vertex="1">
                    <mxGeometry x="360" y="710" width="150" height="30" as="geometry"/>
                </mxCell>
                <mxCell id="ZXGESazvP73ezHv82M8u-42" value="&lt;font style=&quot;font-size: 18px&quot;&gt;Post.js&lt;/font&gt;" style="rounded=0;whiteSpace=wrap;html=1;fontSize=14;" parent="ZXGESazvP73ezHv82M8u-79" vertex="1">
                    <mxGeometry x="550" y="550" width="120" height="60" as="geometry"/>
                </mxCell>
                <mxCell id="ZXGESazvP73ezHv82M8u-49" value="" style="endArrow=classic;html=1;rounded=0;fontSize=18;exitX=0;exitY=1;exitDx=0;exitDy=0;entryX=1;entryY=0;entryDx=0;entryDy=0;" parent="ZXGESazvP73ezHv82M8u-79" source="ZXGESazvP73ezHv82M8u-42" target="ZXGESazvP73ezHv82M8u-48" edge="1">
                    <mxGeometry width="50" height="50" relative="1" as="geometry">
                        <mxPoint x="350" y="690" as="sourcePoint"/>
                        <mxPoint x="400" y="640" as="targetPoint"/>
                    </mxGeometry>
                </mxCell>
                <mxCell id="ZXGESazvP73ezHv82M8u-52" value="" style="endArrow=classic;html=1;rounded=0;fontSize=18;exitX=0;exitY=1;exitDx=0;exitDy=0;entryX=0.5;entryY=0;entryDx=0;entryDy=0;" parent="ZXGESazvP73ezHv82M8u-79" source="ZXGESazvP73ezHv82M8u-42" target="ZXGESazvP73ezHv82M8u-50" edge="1">
                    <mxGeometry width="50" height="50" relative="1" as="geometry">
                        <mxPoint x="420" y="660" as="sourcePoint"/>
                        <mxPoint x="350" y="690" as="targetPoint"/>
                    </mxGeometry>
                </mxCell>
                <mxCell id="ZXGESazvP73ezHv82M8u-53" value="" style="endArrow=classic;html=1;rounded=0;fontSize=18;entryX=1;entryY=0.5;entryDx=0;entryDy=0;exitX=0;exitY=1;exitDx=0;exitDy=0;" parent="ZXGESazvP73ezHv82M8u-79" source="ZXGESazvP73ezHv82M8u-42" target="ZXGESazvP73ezHv82M8u-51" edge="1">
                    <mxGeometry width="50" height="50" relative="1" as="geometry">
                        <mxPoint x="390" y="640" as="sourcePoint"/>
                        <mxPoint x="360" y="700" as="targetPoint"/>
                    </mxGeometry>
                </mxCell>
                <mxCell id="ZXGESazvP73ezHv82M8u-59" value="" style="endArrow=classic;html=1;rounded=0;fontSize=18;exitX=0.5;exitY=1;exitDx=0;exitDy=0;entryX=0.5;entryY=0;entryDx=0;entryDy=0;" parent="ZXGESazvP73ezHv82M8u-79" source="ZXGESazvP73ezHv82M8u-30" target="ZXGESazvP73ezHv82M8u-42" edge="1">
                    <mxGeometry width="50" height="50" relative="1" as="geometry">
                        <mxPoint x="530" y="510" as="sourcePoint"/>
                        <mxPoint x="580" y="460" as="targetPoint"/>
                    </mxGeometry>
                </mxCell>
                <mxCell id="ZXGESazvP73ezHv82M8u-74" value="" style="endArrow=classic;html=1;rounded=0;fontSize=12;exitX=0.617;exitY=1.033;exitDx=0;exitDy=0;entryX=0.5;entryY=0;entryDx=0;entryDy=0;exitPerimeter=0;" parent="ZXGESazvP73ezHv82M8u-79" source="ZXGESazvP73ezHv82M8u-42" target="ZXGESazvP73ezHv82M8u-61" edge="1">
                    <mxGeometry width="50" height="50" relative="1" as="geometry">
                        <mxPoint x="685" y="560" as="sourcePoint"/>
                        <mxPoint x="750" y="660" as="targetPoint"/>
                    </mxGeometry>
                </mxCell>
                <mxCell id="26" value="&lt;span style=&quot;font-size: 18px&quot;&gt;Login.js&lt;/span&gt;" style="rounded=0;whiteSpace=wrap;html=1;fontSize=14;" vertex="1" parent="ZXGESazvP73ezHv82M8u-79">
                    <mxGeometry x="750" y="250" width="160" height="60" as="geometry"/>
                </mxCell>
                <mxCell id="27" value="" style="edgeStyle=none;html=1;entryX=0;entryY=0.5;entryDx=0;entryDy=0;exitX=1;exitY=0.5;exitDx=0;exitDy=0;" edge="1" parent="ZXGESazvP73ezHv82M8u-79" source="ZXGESazvP73ezHv82M8u-24" target="26">
                    <mxGeometry relative="1" as="geometry">
                        <mxPoint x="620" y="150" as="sourcePoint"/>
                        <mxPoint x="780" y="208.66666666666652" as="targetPoint"/>
                    </mxGeometry>
                </mxCell>
                <mxCell id="ZXGESazvP73ezHv82M8u-26" value="&lt;font style=&quot;font-size: 18px&quot;&gt;&lt;b&gt;&lt;u&gt;&lt;i&gt;React components hierarchy&lt;/i&gt;&lt;/u&gt;&lt;/b&gt;&lt;/font&gt;" style="rounded=0;whiteSpace=wrap;html=1;fontSize=14;fillColor=#FFF2CC;" parent="1" vertex="1">
                    <mxGeometry x="-910" y="-80" width="270" height="60" as="geometry"/>
                </mxCell>
            </root>
        </mxGraphModel>
    </diagram>
</mxfile>